<svg width="46" height="46" viewBox="0 0 46 46" fill="none" xmlns="http://www.w3.org/2000/svg">
<path d="M44.0833 34.3275C44.1216 35.765 43.7383 37.1258 43.0483 38.295C42.665 38.985 42.1475 39.6175 41.5725 40.135C40.25 41.3617 38.5058 42.1092 36.5699 42.1667C33.7716 42.2242 31.2991 40.7867 29.9383 38.5825C29.21 37.4517 28.7691 36.0909 28.75 34.6534C28.6925 32.2384 29.7658 30.0533 31.4908 28.6158C32.7941 27.5425 34.4425 26.8717 36.2441 26.8334C40.48 26.7375 43.9875 30.0916 44.0833 34.3275Z" stroke="#556D87" stroke-width="3" stroke-miterlimit="10" stroke-linecap="round" stroke-linejoin="round"/>
<path d="M33.4266 34.5576L35.3625 36.3975L39.3683 32.5258" stroke="#556D87" stroke-width="3" stroke-linecap="round" stroke-linejoin="round"/>
<path d="M6.07587 14.26L23 24.0541L39.8092 14.3174" stroke="#556D87" stroke-width="3" stroke-linecap="round" stroke-linejoin="round"/>
<path d="M23 41.4192V24.035" stroke="#556D87" stroke-width="3" stroke-linecap="round" stroke-linejoin="round"/>
<path d="M41.4191 17.5758V28.4242C41.4191 28.5201 41.4192 28.5967 41.4 28.6925C40.0584 27.5233 38.3333 26.8334 36.4167 26.8334C34.615 26.8334 32.9475 27.4659 31.625 28.5201C29.8617 29.9192 28.75 32.085 28.75 34.5C28.75 35.9375 29.1525 37.2984 29.8617 38.4484C30.0342 38.755 30.245 39.0426 30.475 39.3109L26.9675 41.2468C24.7825 42.4734 21.2175 42.4734 19.0325 41.2468L8.7975 35.5734C6.47834 34.2892 4.58087 31.0692 4.58087 28.4242V17.5758C4.58087 14.9308 6.47834 11.7109 8.7975 10.4267L19.0325 4.75334C21.2175 3.52668 24.7825 3.52668 26.9675 4.75334L37.2025 10.4267C39.5217 11.7109 41.4191 14.9308 41.4191 17.5758Z" stroke="#556D87" stroke-width="3" stroke-linecap="round" stroke-linejoin="round"/>
</svg>
