<svg width="46" height="46" viewBox="0 0 46 46" fill="none" xmlns="http://www.w3.org/2000/svg">
<path d="M6.07593 14.26L23.0001 24.0541L39.8092 14.3174" stroke="#556D87" stroke-width="3" stroke-linecap="round" stroke-linejoin="round"/>
<path d="M23 41.4192V24.035" stroke="#556D87" stroke-width="3" stroke-linecap="round" stroke-linejoin="round"/>
<path d="M19.0325 4.75334L8.7975 10.4459C6.47834 11.7301 4.58087 14.95 4.58087 17.595V28.4242C4.58087 31.0692 6.47834 34.2892 8.7975 35.5734L19.0325 41.2659C21.2175 42.4734 24.8017 42.4734 26.9867 41.2659L37.2217 35.5734C39.5409 34.2892 41.4383 31.0692 41.4383 28.4242V17.595C41.4383 14.95 39.5409 11.7301 37.2217 10.4459L26.9867 4.75334C24.7825 3.52668 21.2175 3.52668 19.0325 4.75334Z" stroke="#556D87" stroke-width="3" stroke-linecap="round" stroke-linejoin="round"/>
<path d="M32.5833 25.3766V18.3617L14.3942 7.85828" stroke="#556D87" stroke-width="3" stroke-linecap="round" stroke-linejoin="round"/>
</svg>
