<svg width="24" height="25" viewBox="0 0 24 25" fill="none" xmlns="http://www.w3.org/2000/svg">
<path d="M11 2.70007H9C4 2.70007 2 4.7172 2 9.76001V15.8114C2 20.8542 4 22.8713 9 22.8713H15C20 22.8713 22 20.8542 22 15.8114V13.7943" stroke="white" stroke-width="1.5" stroke-linecap="round" stroke-linejoin="round"/>
<path d="M16.04 3.7288L8.16 11.6763C7.86 11.9788 7.56 12.5739 7.5 13.0076L7.07 16.0434C6.91 17.1427 7.68 17.9092 8.77 17.7579L11.78 17.3242C12.2 17.2637 12.79 16.9611 13.1 16.6586L20.98 8.7111C22.34 7.33946 22.98 5.74593 20.98 3.7288C18.98 1.71167 17.4 2.35715 16.04 3.7288Z" stroke="white" stroke-width="1.5" stroke-miterlimit="10" stroke-linecap="round" stroke-linejoin="round"/>
<path d="M14.91 4.86844C15.58 7.2789 17.45 9.16492 19.85 9.85074" stroke="white" stroke-width="1.5" stroke-miterlimit="10" stroke-linecap="round" stroke-linejoin="round"/>
</svg>
