<svg width="120" height="161" viewBox="0 0 120 161" fill="none" xmlns="http://www.w3.org/2000/svg">
<path d="M113.314 59.2916V82.5474H5.63391V70.0194C5.63391 67.7452 6.53752 65.5641 8.14596 63.9561C9.7544 62.348 11.9359 61.4445 14.2106 61.4445H61.7065L64.6359 55.503C65.3435 54.0667 66.4391 52.8571 67.7987 52.0113C69.1584 51.1654 70.7277 50.717 72.3291 50.7168H104.738C105.864 50.7168 106.979 50.9386 108.02 51.3695C109.06 51.8004 110.006 52.4321 110.802 53.2283C111.599 54.0245 112.231 54.9698 112.662 56.0102C113.093 57.0505 113.314 58.1655 113.314 59.2916Z" fill="url(#paint0_linear_25_1157)"/>
<path opacity="0.21" d="M113.314 72.0951V82.5474H5.63391V72.5821C7.18406 71.754 8.91555 71.3235 10.6731 71.3293H109.34C110.702 71.3266 112.051 71.5866 113.314 72.0951Z" fill="#7E7E7E"/>
<path d="M99.2317 161H20.7683C18.226 161 15.7674 160.091 13.8362 158.438C11.905 156.785 10.6283 154.497 10.2365 151.985L0.127872 87.2424C-0.109801 85.7222 -0.0153794 84.1685 0.404644 82.6882C0.824668 81.2079 1.56033 79.8361 2.56107 78.6671C3.5618 77.498 4.80386 76.5595 6.20188 75.9161C7.59989 75.2726 9.1207 74.9394 10.6597 74.9395H109.34C110.879 74.9394 112.4 75.2726 113.798 75.9161C115.196 76.5595 116.438 77.498 117.439 78.6671C118.44 79.8361 119.175 81.2079 119.595 82.6882C120.015 84.1685 120.11 85.7222 119.872 87.2424L109.764 151.985C109.372 154.497 108.095 156.785 106.164 158.438C104.233 160.091 101.774 161 99.2317 161Z" fill="url(#paint1_linear_25_1157)"/>
<path d="M46.6092 149.779H29.2039C28.0989 149.781 27.0271 149.402 26.1699 148.704C25.3128 148.007 24.723 147.035 24.5007 145.953L23.1166 139.259C22.9734 138.562 22.9874 137.841 23.1575 137.15C23.3275 136.459 23.6494 135.814 24.0997 135.262C24.55 134.711 25.1175 134.266 25.7609 133.961C26.4044 133.656 27.1077 133.498 27.8198 133.499H47.9765C48.6886 133.498 49.3919 133.656 50.0354 133.961C50.6788 134.266 51.2463 134.711 51.6966 135.262C52.1469 135.814 52.4688 136.459 52.6388 137.15C52.8089 137.841 52.8228 138.562 52.6797 139.259L51.2956 145.953C51.0738 147.032 50.4866 148.002 49.6329 148.699C48.7792 149.396 47.7113 149.777 46.6092 149.779Z" fill="url(#paint2_linear_25_1157)"/>
<path d="M34.7066 61.0479C34.5143 61.0478 34.323 61.0195 34.1389 60.9639C33.6263 60.8136 33.1944 60.4659 32.938 59.9974C32.6816 59.5288 32.6218 58.9777 32.7716 58.4651C33.4236 56.2445 34.5504 54.192 36.0739 52.4496C36.24 52.2265 36.4504 52.0401 36.6921 51.9023C36.9337 51.7645 37.2012 51.6782 37.4778 51.6488C37.7544 51.6193 38.0341 51.6475 38.2993 51.7314C38.5645 51.8154 38.8095 51.9533 39.0188 52.1365C39.2281 52.3197 39.3971 52.5442 39.5154 52.796C39.6337 53.0477 39.6985 53.3212 39.7059 53.5992C39.7133 53.8772 39.6631 54.1537 39.5583 54.4114C39.4536 54.669 39.2967 54.9022 39.0974 55.0963C37.9561 56.3991 37.1123 57.935 36.6249 59.5969C36.5036 60.0128 36.2515 60.3785 35.9059 60.6399C35.5604 60.9012 35.1399 61.0443 34.7066 61.0479ZM42.299 52.0398C41.8516 52.0443 41.4154 51.8998 41.0592 51.6291C40.7029 51.3585 40.4469 50.977 40.3315 50.5448C40.216 50.1126 40.2476 49.6543 40.4214 49.2421C40.5951 48.8299 40.9011 48.4872 41.2911 48.268C43.1839 47.2198 45.1857 46.3818 47.2609 45.7691C47.5153 45.6878 47.7834 45.6578 48.0495 45.681C48.3156 45.7041 48.5745 45.78 48.8111 45.904C49.0476 46.0281 49.2572 46.1979 49.4275 46.4037C49.5978 46.6094 49.7255 46.8469 49.8032 47.1025C49.8809 47.358 49.907 47.6264 49.8801 47.8921C49.8531 48.1578 49.7736 48.4155 49.6461 48.6502C49.5186 48.8849 49.3458 49.092 49.1376 49.2593C48.9294 49.4266 48.69 49.5509 48.4333 49.6249C46.64 50.1526 44.9097 50.8745 43.2732 51.7778C42.9763 51.9472 42.6408 52.0374 42.299 52.0398ZM53.748 48.3956C53.2402 48.3953 52.7512 48.2033 52.3788 47.8581C52.0064 47.5129 51.7781 47.0399 51.7394 46.5337C51.7008 46.0274 51.8547 45.5252 52.1704 45.1276C52.4861 44.7299 52.9404 44.466 53.4423 44.3887C55.374 44.0897 57.4736 43.8714 59.6438 43.7438C59.9085 43.7284 60.1737 43.7652 60.4241 43.8522C60.6746 43.9392 60.9055 44.0747 61.1035 44.2509C61.3016 44.4271 61.4631 44.6406 61.5786 44.8792C61.6942 45.1178 61.7616 45.3768 61.7771 45.6415C61.7925 45.9061 61.7557 46.1712 61.6686 46.4216C61.5816 46.672 61.4461 46.9028 61.2698 47.1009C61.0936 47.2989 60.88 47.4603 60.6414 47.5759C60.4027 47.6914 60.1437 47.7588 59.879 47.7743C57.823 47.8952 55.8476 48.1101 54.0604 48.3788C53.9569 48.3928 53.8524 48.3984 53.748 48.3956ZM65.8084 47.6298C65.2738 47.6325 64.7601 47.4227 64.3802 47.0467C64.0003 46.6707 63.7853 46.1591 63.7827 45.6247C63.78 45.0902 63.9898 44.5766 64.3659 44.1967C64.742 43.8169 65.2537 43.602 65.7882 43.5994C67.8375 43.5792 69.8196 43.502 71.7042 43.3643C72.2388 43.326 72.7667 43.5015 73.1718 43.8524C73.577 44.2032 73.8261 44.7006 73.8644 45.2351C73.9027 45.7695 73.7271 46.2973 73.3761 46.7023C73.0252 47.1074 72.5277 47.3564 71.9932 47.3947C70.0346 47.5358 67.9618 47.6198 65.8286 47.6399L65.8084 47.6298ZM77.8554 46.7263C77.3479 46.7252 76.8594 46.5326 76.4877 46.1871C76.1159 45.8417 75.8882 45.3687 75.8501 44.8627C75.8119 44.3567 75.966 43.8549 76.2817 43.4576C76.5974 43.0603 77.0514 42.7967 77.553 42.7194C79.4705 42.43 81.3705 42.0342 83.244 41.5338C83.7594 41.3912 84.3103 41.4592 84.7756 41.7229C85.2409 41.9865 85.5824 42.4241 85.7249 42.9394C85.8675 43.4547 85.7994 44.0055 85.5358 44.4707C85.2721 44.9359 84.8344 45.2773 84.319 45.4198C82.2989 45.9627 80.2497 46.3911 78.1813 46.7028C78.0757 46.7195 77.969 46.7274 77.8621 46.7263H77.8554ZM89.4589 43.4549C89 43.4549 88.5549 43.2982 88.1971 43.0109C87.8393 42.7236 87.5903 42.3229 87.4912 41.8749C87.3921 41.4269 87.4489 40.9585 87.6521 40.5472C87.8554 40.1358 88.1929 39.8061 88.609 39.6126C90.2826 38.8612 91.8457 37.8848 93.2551 36.7106C93.6614 36.3632 94.1891 36.1914 94.7221 36.233C95.2551 36.2746 95.7497 36.5261 96.0972 36.9323C96.4447 37.3385 96.6166 37.8661 96.575 38.399C96.5334 38.9318 96.2818 39.4264 95.8755 39.7738C94.1866 41.1856 92.314 42.3618 90.3089 43.2702C90.044 43.3906 89.7566 43.4535 89.4657 43.4549H89.4589ZM98.2271 35.5149C97.9436 35.5143 97.6634 35.4548 97.404 35.3403C96.9174 35.1204 96.538 34.7164 96.349 34.217C96.16 33.7176 96.177 33.1637 96.3962 32.6768C96.9138 31.528 97.1817 30.2825 97.1823 29.0225C97.1826 28.6306 97.1579 28.2391 97.1084 27.8503C97.0751 27.5872 97.094 27.3201 97.1639 27.0643C97.2338 26.8085 97.3535 26.569 97.516 26.3594C97.8442 25.9361 98.3272 25.6605 98.8587 25.5933C99.3902 25.526 99.9266 25.6726 100.35 26.0008C100.773 26.3289 101.049 26.8118 101.116 27.3432C101.187 27.9002 101.223 28.461 101.224 29.0225C101.224 30.8496 100.837 32.6559 100.088 34.3226C99.9284 34.6799 99.6679 34.983 99.3385 35.1947C99.0092 35.4065 98.6254 35.5177 98.2338 35.5149H98.2271ZM96.9371 24.0214C96.6055 24.0226 96.2787 23.942 95.9857 23.7868C95.6927 23.6315 95.4425 23.4064 95.2574 23.1313C94.2653 21.6746 93.0042 20.4207 91.5418 19.4367C91.3178 19.2906 91.1252 19.1013 90.9751 18.88C90.825 18.6587 90.7205 18.4097 90.6676 18.1476C90.6147 17.8855 90.6145 17.6155 90.667 17.3533C90.7196 17.0911 90.8238 16.842 90.9736 16.6204C91.1234 16.3989 91.3158 16.2094 91.5396 16.063C91.7633 15.9165 92.014 15.8161 92.277 15.7675C92.54 15.7189 92.8101 15.7231 93.0714 15.7798C93.3328 15.8366 93.5802 15.9448 93.7994 16.0982C95.6921 17.3731 97.3228 18.999 98.6034 20.8877C98.8069 21.1914 98.924 21.5448 98.9421 21.9099C98.9602 22.2751 98.8785 22.6383 98.7059 22.9606C98.5333 23.283 98.2763 23.5523 97.9623 23.7397C97.6484 23.9272 97.2893 24.0257 96.9236 24.0247L96.9371 24.0214Z" fill="url(#paint3_linear_25_1157)"/>
<path d="M87.0804 17.3855C86.9392 17.3857 86.7985 17.3711 86.6604 17.3419C85.7569 17.1506 84.8359 17.0538 83.9124 17.0529C83.3778 17.0529 82.8651 16.8406 82.4871 16.4626C82.1091 16.0846 81.8967 15.5719 81.8967 15.0373C81.8967 14.5027 82.1091 13.99 82.4871 13.612C82.8651 13.234 83.3778 13.0216 83.9124 13.0216C85.1182 13.0212 86.3208 13.1473 87.5003 13.3979C87.988 13.5011 88.4201 13.7813 88.7133 14.1845C89.0064 14.5877 89.1398 15.0852 89.0876 15.581C89.0354 16.0767 88.8013 16.5355 88.4306 16.8688C88.0599 17.2021 87.5789 17.3862 87.0804 17.3855Z" fill="#ADBBCC"/>
<path d="M74.6404 12.4777H60.0772C60.4132 9.96535 61.972 7.01976 64.4983 4.494C68.8185 0.178044 74.3549 -1.283 76.8711 1.22932C79.1723 3.53005 78.141 8.36325 74.6404 12.4777Z" fill="#D7E6F5"/>
<path d="M74.6405 17.9287H60.0773C60.4132 20.441 61.972 23.3866 64.4983 25.9124C68.8186 30.2283 74.3549 31.6894 76.8712 29.1771C79.1724 26.8696 78.141 22.0431 74.6405 17.9287Z" fill="#D7E6F5"/>
<path d="M77.5095 12.4778H59.4928C57.9862 12.4778 56.7649 13.6988 56.7649 15.2051C56.7649 16.7113 57.9862 17.9323 59.4928 17.9323H77.5095C79.0161 17.9323 80.2374 16.7113 80.2374 15.2051C80.2374 13.6988 79.0161 12.4778 77.5095 12.4778Z" fill="#ADBBCC"/>
<defs>
<linearGradient id="paint0_linear_25_1157" x1="5.82168" y1="101.292" x2="113.609" y2="50.9335" gradientUnits="userSpaceOnUse">
<stop stop-color="#E7EDF8"/>
<stop offset="1" stop-color="#9BAABD"/>
</linearGradient>
<linearGradient id="paint1_linear_25_1157" x1="92.9495" y1="166.276" x2="32.123" y2="60.8953" gradientUnits="userSpaceOnUse">
<stop stop-color="#E7EDF8"/>
<stop offset="1" stop-color="#94A4B7"/>
</linearGradient>
<linearGradient id="paint2_linear_25_1157" x1="23.0292" y1="141.641" x2="52.7872" y2="141.641" gradientUnits="userSpaceOnUse">
<stop stop-color="#E5EBF7"/>
<stop offset="1" stop-color="#95A5B8"/>
</linearGradient>
<linearGradient id="paint3_linear_25_1157" x1="32.0896" y1="38.3967" x2="101.21" y2="38.3967" gradientUnits="userSpaceOnUse">
<stop stop-color="#E7EDF8"/>
<stop offset="1" stop-color="#A6B5C6"/>
</linearGradient>
</defs>
</svg>
