<svg width="28" height="28" viewBox="0 0 28 28" fill="none" xmlns="http://www.w3.org/2000/svg">
<path d="M25.6666 12.5417C26.1449 12.5417 26.5416 12.145 26.5416 11.6667V10.5C26.5416 5.355 24.9783 3.79166 19.8333 3.79166H12.5416V6.41666C12.5416 6.895 12.1449 7.29166 11.6666 7.29166C11.1883 7.29166 10.7916 6.895 10.7916 6.41666V3.79166H8.16659C3.02159 3.79166 1.45825 5.355 1.45825 10.5V11.0833C1.45825 11.5617 1.85492 11.9583 2.33325 11.9583C3.45325 11.9583 4.37492 12.88 4.37492 14C4.37492 15.12 3.45325 16.0417 2.33325 16.0417C1.85492 16.0417 1.45825 16.4383 1.45825 16.9167V17.5C1.45825 22.645 3.02159 24.2083 8.16659 24.2083H10.7916V21.5833C10.7916 21.105 11.1883 20.7083 11.6666 20.7083C12.1449 20.7083 12.5416 21.105 12.5416 21.5833V24.2083H19.8333C24.9783 24.2083 26.5416 22.645 26.5416 17.5C26.5416 17.0217 26.1449 16.625 25.6666 16.625C24.5466 16.625 23.6249 15.7033 23.6249 14.5833C23.6249 13.4633 24.5466 12.5417 25.6666 12.5417ZM12.5416 16.5317C12.5416 17.01 12.1449 17.4067 11.6666 17.4067C11.1883 17.4067 10.7916 17.01 10.7916 16.5317V11.4683C10.7916 10.99 11.1883 10.5933 11.6666 10.5933C12.1449 10.5933 12.5416 10.99 12.5416 11.4683V16.5317Z" fill="white"/>
</svg>
