<svg width="20" height="20" viewBox="0 0 20 20" fill="none" xmlns="http://www.w3.org/2000/svg">
<path d="M15 2.5H4.99996C3.15829 2.5 1.66663 3.98333 1.66663 5.80833V14.1917C1.66663 16.0167 3.15829 17.5 4.99996 17.5H15C16.8416 17.5 18.3333 16.0167 18.3333 14.1917V5.80833C18.3333 3.98333 16.8416 2.5 15 2.5ZM7.08329 5.975C8.14163 5.975 9.00829 6.84167 9.00829 7.9C9.00829 8.95833 8.14163 9.825 7.08329 9.825C6.02496 9.825 5.15829 8.95833 5.15829 7.9C5.15829 6.84167 6.02496 5.975 7.08329 5.975ZM10.3083 13.8833C10.2333 13.9667 10.1166 14.0167 9.99996 14.0167H4.16663C4.04996 14.0167 3.93329 13.9667 3.85829 13.8833C3.78329 13.8 3.74163 13.6833 3.74996 13.5667C3.89163 12.1667 5.00829 11.0583 6.40829 10.925C6.84996 10.8833 7.30829 10.8833 7.74996 10.925C9.14996 11.0583 10.275 12.1667 10.4083 13.5667C10.425 13.6833 10.3833 13.8 10.3083 13.8833ZM15.8333 13.9583H14.1666C13.825 13.9583 13.5416 13.675 13.5416 13.3333C13.5416 12.9917 13.825 12.7083 14.1666 12.7083H15.8333C16.175 12.7083 16.4583 12.9917 16.4583 13.3333C16.4583 13.675 16.175 13.9583 15.8333 13.9583ZM15.8333 10.625H12.5C12.1583 10.625 11.875 10.3417 11.875 10C11.875 9.65833 12.1583 9.375 12.5 9.375H15.8333C16.175 9.375 16.4583 9.65833 16.4583 10C16.4583 10.3417 16.175 10.625 15.8333 10.625ZM15.8333 7.29167H11.6666C11.325 7.29167 11.0416 7.00833 11.0416 6.66667C11.0416 6.325 11.325 6.04167 11.6666 6.04167H15.8333C16.175 6.04167 16.4583 6.325 16.4583 6.66667C16.4583 7.00833 16.175 7.29167 15.8333 7.29167Z" fill="#7C8FA5"/>
</svg>
