<svg width="20" height="20" viewBox="0 0 20 20" fill="none" xmlns="http://www.w3.org/2000/svg">
<path d="M18.3333 2.29169H1.66663C1.32496 2.29169 1.04163 2.00835 1.04163 1.66669C1.04163 1.32502 1.32496 1.04169 1.66663 1.04169H18.3333C18.675 1.04169 18.9583 1.32502 18.9583 1.66669C18.9583 2.00835 18.675 2.29169 18.3333 2.29169Z" fill="#7C8FA5"/>
<path d="M13.8916 18.6167C13.7833 18.8334 13.5583 18.9584 13.3333 18.9584C13.2416 18.9584 13.1416 18.9334 13.0583 18.8917L9.99997 17.3667L6.94164 18.8917C6.8583 18.9334 6.7583 18.9584 6.66664 18.9584C6.44164 18.9584 6.21664 18.8334 6.1083 18.6167C5.94997 18.3 6.07497 17.925 6.39164 17.775L9.37497 16.2834V14.1667H10.625V16.2834L13.6083 17.775C13.925 17.925 14.05 18.3 13.8916 18.6167Z" fill="#7C8FA5"/>
<path d="M2.5 1.66669V11.75C2.5 13.3334 3.33333 14.1667 4.91667 14.1667H15.0833C16.6667 14.1667 17.5 13.3334 17.5 11.75V1.66669H2.5ZM14.15 7.15002L11.525 9.34169C11.2833 9.54169 10.975 9.62502 10.6833 9.57502C10.3833 9.52502 10.125 9.34169 9.96667 9.07502L9.09167 7.61669L6.65 9.65002C6.53333 9.75002 6.39167 9.79169 6.25 9.79169C6.075 9.79169 5.89167 9.71669 5.76667 9.56669C5.54167 9.30002 5.58333 8.90835 5.85 8.68335L8.475 6.49169C8.71667 6.29169 9.025 6.20835 9.31667 6.25835C9.61667 6.30835 9.875 6.49169 10.0333 6.75835L10.9083 8.21669L13.35 6.18335C13.6167 5.95835 14.0083 6.00002 14.2333 6.26669C14.45 6.53335 14.4167 6.92502 14.15 7.15002Z" fill="#7C8FA5"/>
</svg>
