<svg width="20" height="20" viewBox="0 0 20 20" fill="none" xmlns="http://www.w3.org/2000/svg">
<path d="M14.1666 2.91669H5.83329C3.33329 2.91669 1.66663 4.16669 1.66663 7.08335V12.9167C1.66663 15.8334 3.33329 17.0834 5.83329 17.0834H14.1666C16.6666 17.0834 18.3333 15.8334 18.3333 12.9167V7.08335C18.3333 4.16669 16.6666 2.91669 14.1666 2.91669ZM14.5583 7.99169L11.95 10.075C11.4 10.5167 10.7 10.7334 9.99996 10.7334C9.29996 10.7334 8.59163 10.5167 8.04996 10.075L5.44163 7.99169C5.17496 7.77502 5.13329 7.37502 5.34163 7.10835C5.55829 6.84169 5.94996 6.79169 6.21663 7.00835L8.82496 9.09169C9.45829 9.60002 10.5333 9.60002 11.1666 9.09169L13.775 7.00835C14.0416 6.79169 14.4416 6.83335 14.65 7.10835C14.8666 7.37502 14.825 7.77502 14.5583 7.99169Z" fill="#7C8FA5"/>
</svg>
