<svg width="46" height="46" viewBox="0 0 46 46" fill="none" xmlns="http://www.w3.org/2000/svg">
<path d="M7.9923 29.3251L16.6748 38.0076C20.2398 41.5726 26.0281 41.5726 29.6123 38.0076L38.0265 29.5934C41.5915 26.0284 41.5915 20.2401 38.0265 16.6559L29.3248 7.99259C27.504 6.17176 24.9931 5.19426 22.4248 5.32843L12.8415 5.78843C9.00813 5.96093 5.96063 9.00843 5.76896 12.8226L5.30896 22.4059C5.19396 24.9934 6.17146 27.5043 7.9923 29.3251Z" stroke="#556D87" stroke-width="3" stroke-linecap="round" stroke-linejoin="round"/>
<path d="M18.2081 23.0001C20.8545 23.0001 22.9998 20.8548 22.9998 18.2084C22.9998 15.5621 20.8545 13.4168 18.2081 13.4168C15.5618 13.4168 13.4165 15.5621 13.4165 18.2084C13.4165 20.8548 15.5618 23.0001 18.2081 23.0001Z" stroke="#556D87" stroke-width="3" stroke-linecap="round"/>
</svg>
