<svg width="24" height="25" viewBox="0 0 24 25" fill="none" xmlns="http://www.w3.org/2000/svg">
<path d="M21 6.71415C17.67 6.38133 14.32 6.20987 10.98 6.20987C9 6.20987 7.02 6.31073 5.04 6.51244L3 6.71415" stroke="#182634" stroke-width="1.5" stroke-linecap="round" stroke-linejoin="round"/>
<path d="M8.5 5.69551L8.72 4.37429C8.88 3.41615 9 2.70007 10.69 2.70007H13.31C15 2.70007 15.13 3.4565 15.28 4.38437L15.5 5.69551" stroke="#182634" stroke-width="1.5" stroke-linecap="round" stroke-linejoin="round"/>
<path d="M18.85 9.90121L18.2 20.0574C18.09 21.6409 18 22.8713 15.21 22.8713H8.79002C6.00002 22.8713 5.91002 21.6409 5.80002 20.0574L5.15002 9.90121" stroke="#182634" stroke-width="1.5" stroke-linecap="round" stroke-linejoin="round"/>
<path d="M10.33 17.3242H13.66" stroke="#182634" stroke-width="1.5" stroke-linecap="round" stroke-linejoin="round"/>
<path d="M9.5 13.29H14.5" stroke="#182634" stroke-width="1.5" stroke-linecap="round" stroke-linejoin="round"/>
</svg>
