<svg width="20" height="20" viewBox="0 0 20 20" fill="none" xmlns="http://www.w3.org/2000/svg">
<path d="M17.5 4.98332C14.725 4.70832 11.9333 4.56665 9.15 4.56665C7.5 4.56665 5.85 4.64998 4.2 4.81665L2.5 4.98332" stroke="#A6B5C6" stroke-width="1.5" stroke-linecap="round" stroke-linejoin="round"/>
<path d="M7.08333 4.14175L7.26667 3.05008C7.4 2.25841 7.5 1.66675 8.90833 1.66675H11.0917C12.5 1.66675 12.6083 2.29175 12.7333 3.05841L12.9167 4.14175" stroke="#A6B5C6" stroke-width="1.5" stroke-linecap="round" stroke-linejoin="round"/>
<path d="M15.7083 7.6167L15.1666 16.0084C15.0749 17.3167 14.9999 18.3334 12.6749 18.3334H7.32492C4.99992 18.3334 4.92492 17.3167 4.83325 16.0084L4.29158 7.6167" stroke="#A6B5C6" stroke-width="1.5" stroke-linecap="round" stroke-linejoin="round"/>
<path d="M8.6084 13.75H11.3834" stroke="#A6B5C6" stroke-width="1.5" stroke-linecap="round" stroke-linejoin="round"/>
<path d="M7.91667 10.4167H12.0833" stroke="#A6B5C6" stroke-width="1.5" stroke-linecap="round" stroke-linejoin="round"/>
</svg>
